<?xml version="1.0" standalone="no"?>
<!DOCTYPE svg PUBLIC "-//W3C//DTD SVG 20010904//EN"
 "http://www.w3.org/TR/2001/REC-SVG-20010904/DTD/svg10.dtd">
<svg version="1.0" xmlns="http://www.w3.org/2000/svg"
 width="1080.000000pt" height="1069.000000pt" viewBox="0 0 1080.000000 1069.000000"
 preserveAspectRatio="xMidYMid meet">

<g transform="translate(0.000000,1069.000000) scale(0.100000,-0.100000)"
fill="#000000" stroke="none">
<path d="M5035 10564 c-11 -1 -81 -8 -155 -14 -138 -11 -158 -14 -385 -50
-130 -20 -146 -23 -285 -55 -195 -45 -223 -52 -350 -91 -221 -68 -440 -147
-555 -199 -16 -7 -59 -25 -95 -40 -229 -96 -628 -317 -870 -481 -254 -174
-559 -421 -735 -598 -48 -48 -206 -223 -250 -277 -11 -13 -54 -65 -96 -114
-67 -80 -133 -166 -179 -231 -267 -383 -375 -572 -560 -979 -110 -243 -233
-626 -310 -970 -5 -22 -14 -61 -19 -87 -6 -25 -15 -75 -21 -110 -5 -34 -16
-106 -25 -158 -27 -163 -55 -560 -55 -779 0 -157 31 -601 46 -661 4 -14 10
-52 15 -85 18 -136 61 -351 94 -470 9 -33 21 -78 25 -100 17 -81 158 -496 213
-625 8 -19 23 -55 33 -80 25 -59 174 -357 220 -440 91 -163 231 -383 343 -540
17 -25 39 -56 49 -70 9 -14 19 -27 22 -30 3 -3 19 -23 35 -45 16 -22 35 -47
42 -55 6 -8 33 -42 60 -75 138 -174 447 -491 653 -670 19 -17 82 -68 140 -113
58 -46 114 -91 125 -100 11 -10 45 -34 75 -54 30 -21 75 -52 100 -69 115 -81
318 -207 490 -302 136 -75 437 -219 560 -267 74 -29 144 -57 155 -61 26 -11
218 -74 270 -89 91 -26 273 -75 335 -90 184 -44 304 -67 409 -81 42 -6 103
-15 136 -20 33 -5 121 -13 195 -19 343 -25 471 -32 545 -26 44 3 157 10 250
16 199 11 365 28 416 41 20 5 50 9 67 9 32 0 167 23 232 40 19 5 69 16 110 25
148 33 320 77 365 95 11 4 65 22 120 39 227 72 491 179 680 276 137 70 210
110 230 125 6 4 30 19 55 32 25 14 79 46 120 72 41 26 84 52 95 59 11 7 62 41
113 77 52 36 105 72 117 80 78 50 242 181 455 364 109 93 341 323 446 441 177
200 422 532 561 760 124 205 293 516 293 540 0 3 11 29 26 58 30 63 92 214
129 317 15 41 30 84 34 95 5 11 16 45 25 75 10 30 22 64 26 75 5 11 16 49 25
85 9 36 21 74 25 85 5 11 16 52 25 90 8 39 19 86 25 105 23 89 34 144 56 275
3 17 9 48 15 70 15 62 42 298 59 520 14 173 8 678 -10 825 -21 180 -54 398
-79 525 -16 84 -80 346 -102 420 -11 39 -23 79 -25 90 -3 11 -9 29 -14 40 -4
11 -16 47 -25 80 -15 52 -51 159 -75 220 -5 11 -15 38 -23 60 -8 22 -26 65
-40 95 -13 30 -33 75 -43 100 -26 64 -172 356 -204 410 -15 25 -48 81 -74 125
-66 112 -66 111 -118 187 -27 37 -48 70 -48 73 0 8 -222 299 -298 390 -119
143 -206 236 -367 394 -172 169 -219 212 -330 301 -44 35 -100 80 -125 100
-75 60 -304 219 -383 265 -9 5 -61 37 -115 70 -169 103 -452 247 -632 322 -47
19 -103 43 -125 53 -22 9 -74 30 -115 45 -41 15 -82 30 -90 34 -8 4 -55 20
-105 35 -49 16 -99 32 -110 36 -40 16 -124 40 -140 40 -8 0 -23 4 -33 10 -19
10 -151 42 -297 71 -55 11 -116 24 -135 29 -100 25 -375 61 -600 79 -110 9
-702 13 -755 5z m1073 -71 c-10 -2 -26 -2 -35 0 -10 3 -2 5 17 5 19 0 27 -2
18 -5z m-423 -163 c72 -6 159 -15 195 -20 36 -5 108 -14 160 -20 95 -11 119
-15 285 -44 120 -22 167 -31 250 -51 39 -10 85 -20 103 -22 18 -3 35 -9 38
-14 3 -5 13 -9 23 -9 9 0 64 -15 122 -34 57 -18 131 -42 164 -51 33 -10 65
-22 70 -25 6 -4 26 -11 45 -15 19 -4 41 -11 50 -15 38 -20 89 -40 102 -40 8 0
18 -4 24 -8 5 -5 25 -15 44 -22 56 -21 116 -48 268 -121 79 -38 147 -69 152
-69 4 0 10 -3 12 -7 2 -5 23 -18 48 -31 48 -24 122 -65 180 -100 19 -12 42
-25 50 -29 24 -10 206 -130 315 -206 98 -69 133 -96 219 -167 24 -19 60 -48
81 -65 139 -107 384 -345 525 -509 47 -54 90 -103 95 -110 96 -109 385 -512
385 -536 0 -6 3 -10 8 -10 4 0 16 -17 27 -37 11 -21 35 -63 54 -93 38 -60 192
-363 230 -450 54 -126 74 -173 91 -220 18 -52 26 -71 44 -113 9 -21 16 -44 16
-52 0 -9 4 -23 9 -33 32 -59 141 -453 141 -510 0 -11 4 -23 9 -26 5 -3 11 -23
14 -43 3 -21 13 -76 22 -123 27 -142 34 -191 45 -300 6 -58 15 -136 20 -175
16 -117 23 -566 10 -745 -11 -169 -32 -363 -49 -460 -29 -161 -41 -229 -50
-265 -6 -22 -17 -69 -25 -105 -8 -36 -20 -83 -26 -105 -6 -22 -14 -52 -17 -68
-3 -15 -9 -27 -14 -27 -10 0 -251 149 -259 160 -3 3 -12 9 -20 13 -8 4 -24 13
-35 19 -110 70 -352 193 -510 258 l-30 12 60 19 c33 11 70 24 83 29 12 6 32
14 45 19 56 24 102 45 107 51 3 3 32 22 65 44 56 36 235 209 235 227 0 4 20
36 44 71 75 108 91 165 59 216 -17 27 -83 112 -94 122 -3 3 -8 12 -12 20 -4 8
-13 24 -19 35 -38 59 -78 126 -78 130 0 2 -12 30 -26 62 -48 105 -54 121 -54
136 0 9 -4 18 -9 21 -5 3 -11 18 -14 33 -5 27 -28 111 -48 183 -28 96 -55 232
-75 370 -8 58 -19 137 -24 175 -5 39 -15 113 -20 165 -6 52 -15 108 -20 124
-6 16 -10 40 -10 54 0 14 -4 39 -9 56 -6 17 -17 78 -26 136 -9 58 -21 113 -26
122 -5 10 -9 26 -9 35 0 24 -30 154 -41 175 -5 10 -9 25 -9 35 0 9 -4 30 -10
47 -5 17 -23 78 -40 136 -18 58 -35 114 -40 125 -5 11 -16 43 -26 70 -21 58
-105 224 -134 265 -11 15 -20 30 -20 33 0 3 -19 33 -42 67 -24 34 -47 69 -53
79 -46 79 -281 314 -366 366 -9 6 -36 24 -60 41 -85 61 -325 184 -359 184 -5
0 -18 4 -28 9 -27 14 -87 31 -139 41 -27 5 -86 16 -133 25 -68 13 -131 15
-310 12 -124 -3 -243 -8 -265 -11 -83 -14 -228 -50 -270 -66 -11 -4 -42 -16
-70 -25 -138 -49 -342 -158 -439 -235 -55 -44 -223 -191 -236 -207 -8 -10 -49
-59 -90 -108 -78 -92 -130 -160 -130 -168 0 -3 -25 -45 -56 -93 -30 -49 -65
-109 -76 -134 -11 -25 -29 -63 -39 -84 -11 -22 -19 -44 -19 -49 0 -5 -6 -23
-14 -40 -25 -59 -56 -194 -76 -337 -12 -84 -11 -136 9 -390 5 -69 11 -237 12
-375 2 -244 10 -389 29 -490 18 -101 42 -211 49 -230 5 -11 16 -45 25 -75 10
-30 21 -64 26 -75 5 -11 16 -42 25 -70 60 -174 168 -366 300 -530 82 -102 98
-117 224 -213 99 -74 301 -182 343 -182 8 0 18 -4 24 -8 5 -5 28 -14 51 -22
l42 -13 -17 -30 c-22 -38 -111 -109 -154 -123 -10 -4 -18 -10 -18 -14 0 -4 -8
-10 -17 -13 -10 -3 -55 -21 -99 -40 -57 -23 -88 -31 -103 -25 -11 4 -21 12
-21 17 0 17 -244 255 -317 310 -64 48 -198 120 -253 136 -14 4 -29 11 -35 15
-10 6 -88 30 -170 51 -22 6 -53 14 -70 19 -60 18 -340 32 -502 25 -157 -6
-236 -15 -318 -34 -22 -6 -62 -15 -90 -21 -27 -7 -54 -16 -59 -21 -6 -5 -18
-9 -28 -9 -10 0 -26 -4 -36 -9 -9 -5 -57 -28 -107 -51 -106 -51 -209 -125
-309 -221 -59 -58 -75 -68 -96 -63 -14 3 -27 9 -30 12 -12 16 -323 162 -345
162 -33 0 -12 17 43 34 31 10 68 26 82 36 14 10 35 21 48 24 12 4 22 12 22 17
0 5 5 9 10 9 28 0 200 150 275 240 52 62 95 119 95 125 0 6 40 65 50 75 13 12
120 237 120 252 0 9 5 20 10 23 6 3 10 16 10 29 0 12 4 26 9 31 5 6 14 30 19
55 6 25 16 63 22 85 11 37 25 105 50 245 6 30 15 93 20 140 5 47 15 126 21
175 7 50 13 263 15 485 2 217 7 469 11 560 8 169 3 306 -16 395 -5 28 -15 75
-20 105 -11 54 -28 121 -39 150 -3 8 -12 40 -19 70 -7 30 -16 66 -20 79 -3 13
-1 26 4 30 18 11 55 92 74 163 13 46 19 101 19 172 0 96 -2 107 -24 133 -32
38 -84 53 -186 53 -45 0 -114 7 -154 16 -73 17 -85 20 -148 48 -20 9 -41 16
-47 16 -6 0 -11 3 -11 8 0 4 -10 12 -23 18 -12 6 -78 40 -147 76 -69 35 -141
70 -160 77 -19 8 -51 21 -70 29 -19 8 -44 18 -55 22 -21 9 -93 28 -135 36 -14
3 -34 9 -45 14 -20 8 -106 24 -235 42 -97 15 -517 21 -575 10 -27 -6 -90 -18
-140 -27 -95 -17 -140 -29 -192 -52 -17 -7 -36 -13 -41 -13 -15 0 -188 -94
-202 -109 -3 -4 -12 -10 -21 -16 -125 -77 -254 -225 -274 -313 -5 -23 -22 -43
-70 -77 -72 -51 -134 -110 -186 -175 -154 -196 -215 -401 -205 -695 2 -82 9
-175 14 -205 24 -129 44 -212 63 -255 16 -38 14 -50 -15 -110 -16 -33 -33 -69
-37 -80 -24 -63 -30 -232 -12 -340 22 -131 35 -190 44 -199 5 -6 9 -18 9 -28
0 -10 4 -26 9 -36 21 -42 41 -94 41 -107 0 -8 5 -15 10 -15 6 0 10 -4 10 -9 0
-22 74 -132 114 -169 58 -55 143 -108 195 -122 23 -6 51 -20 63 -32 20 -20 21
-27 14 -197 -13 -349 -50 -696 -77 -726 -5 -5 -9 -15 -9 -23 0 -22 -49 -114
-68 -129 -60 -46 -143 -94 -309 -179 -103 -53 -192 -100 -198 -104 -5 -4 -44
-26 -85 -48 -118 -62 -291 -161 -300 -171 -8 -10 -44 -31 -62 -37 -10 -4 -18
-9 -18 -13 0 -4 -16 -15 -35 -25 -19 -11 -35 -23 -35 -28 0 -4 -4 -8 -9 -8
-10 0 -159 -103 -221 -153 -19 -15 -39 -29 -44 -30 -6 -1 -15 25 -22 58 -7 33
-18 78 -24 100 -6 22 -18 72 -26 110 -8 39 -19 90 -25 115 -23 108 -51 302
-70 485 -16 155 -16 731 0 895 20 205 49 405 71 500 17 73 40 182 47 220 3 19
9 40 13 45 4 6 11 28 14 50 7 39 21 88 36 130 4 11 16 47 25 80 10 33 21 69
26 80 4 11 15 43 24 70 19 56 33 92 46 117 5 10 9 23 9 29 0 6 6 25 14 42 8
18 21 50 29 72 39 104 174 389 237 500 13 22 35 63 51 92 42 78 119 204 145
240 13 17 24 36 24 41 0 4 11 19 25 32 14 13 25 29 25 36 0 7 3 14 8 16 4 2
37 44 73 94 36 49 73 99 82 110 9 10 32 39 52 64 106 134 166 200 320 355 139
139 295 283 350 323 34 25 121 98 123 105 2 4 9 7 17 7 7 0 18 7 25 15 19 23
288 211 410 286 97 61 234 137 355 199 28 14 52 28 53 33 2 4 7 7 12 7 5 0 41
15 82 34 148 68 189 86 194 86 3 0 30 11 60 25 30 14 57 25 60 25 6 0 68 26
94 40 9 4 30 11 48 14 17 4 34 12 37 17 4 5 15 9 26 9 10 0 27 4 37 9 9 6 44
17 77 26 33 9 68 21 77 26 10 5 24 9 32 9 14 0 107 26 141 40 11 5 34 11 50
15 17 3 56 12 87 18 31 7 60 15 64 20 4 4 19 7 34 7 15 0 40 4 56 10 16 5 58
15 94 20 36 6 90 15 120 21 89 15 284 37 435 49 77 6 142 13 144 16 9 8 420 4
546 -6z m1782 -1516 c-3 -3 -12 -4 -19 -1 -8 3 -5 6 6 6 11 1 17 -2 13 -5z
m581 -1 c-10 -2 -28 -2 -40 0 -13 2 -5 4 17 4 22 1 32 -1 23 -4z m-3371 -169
c-3 -3 -12 -4 -19 -1 -8 3 -5 6 6 6 11 1 17 -2 13 -5z m110 -186 c-2 -18 -4
-6 -4 27 0 33 2 48 4 33 2 -15 2 -42 0 -60z m-2150 -334 c-3 -3 -12 -4 -19 -1
-8 3 -5 6 6 6 11 1 17 -2 13 -5z m128 -49 c44 -7 96 -18 115 -23 19 -6 71 -20
115 -32 44 -12 89 -25 100 -29 36 -14 89 -29 160 -46 39 -9 86 -20 105 -25 33
-10 104 -20 270 -40 181 -22 515 -1 630 39 78 27 173 52 183 48 17 -7 79 -137
93 -193 4 -16 10 -33 14 -39 4 -5 10 -23 14 -40 50 -231 68 -410 56 -550 -13
-138 -12 -242 2 -346 9 -69 9 -134 -1 -286 -15 -257 -34 -399 -79 -623 -19
-93 -75 -277 -103 -337 -10 -24 -19 -46 -19 -50 0 -3 -14 -36 -32 -72 -28 -58
-53 -100 -115 -191 -20 -30 -205 -220 -214 -220 -4 0 -30 -15 -58 -34 -66 -45
-138 -79 -235 -110 -87 -29 -201 -35 -298 -15 -29 6 -78 15 -108 21 -64 12
-161 38 -175 48 -5 4 -32 15 -59 25 -47 17 -173 84 -204 109 -8 6 -59 53 -113
104 -117 109 -138 115 -188 55 -36 -43 -37 -57 -14 -104 33 -68 203 -214 320
-276 62 -33 151 -76 171 -84 12 -5 32 -13 45 -18 20 -9 53 -18 176 -51 25 -7
101 -14 170 -16 l126 -4 -1 -88 c-1 -175 -50 -388 -109 -482 -32 -51 -81 -91
-161 -131 l-69 -34 -170 0 c-108 0 -188 5 -220 13 -27 7 -66 17 -85 22 -70 18
-146 41 -180 57 -110 49 -203 97 -239 123 -22 17 -43 30 -46 30 -3 0 -11 5
-18 10 -7 6 -46 37 -87 69 -113 89 -360 349 -360 380 0 3 25 26 55 49 84 65
143 164 180 297 9 33 20 74 25 90 31 102 50 852 25 965 -12 51 -38 70 -97 70
-122 0 -270 154 -342 355 -10 28 -21 59 -26 70 -5 11 -17 68 -26 126 -15 98
-15 114 -1 192 27 145 64 185 173 186 35 1 73 -5 90 -14 59 -29 104 -96 119
-175 14 -73 54 -130 93 -130 31 0 102 65 150 139 29 43 52 81 52 85 0 3 11 29
24 58 30 65 56 142 56 168 0 10 4 21 9 24 5 3 11 20 14 38 3 18 13 76 22 128
26 146 34 214 45 355 16 206 31 339 42 352 20 24 99 28 213 8z m4840 -70 c45
-148 71 -223 82 -245 7 -14 13 -29 13 -34 0 -11 120 -258 129 -266 3 -3 15
-21 25 -40 98 -179 348 -451 561 -610 26 -19 53 -41 60 -47 8 -7 16 -13 19
-13 4 0 25 -13 48 -30 69 -50 135 -41 208 28 38 37 125 72 176 72 73 0 137
-40 171 -107 25 -50 27 -64 26 -159 0 -57 -5 -116 -11 -131 -5 -16 -16 -48
-23 -73 -14 -49 -56 -132 -100 -196 -50 -74 -156 -154 -202 -154 -9 0 -19 -4
-22 -10 -3 -5 -30 -10 -58 -10 -68 -1 -90 -19 -112 -95 -10 -33 -22 -64 -27
-69 -4 -6 -8 -16 -8 -22 0 -7 -18 -52 -40 -99 -22 -47 -40 -88 -40 -90 0 -2
-22 -43 -50 -91 -27 -48 -50 -91 -50 -95 0 -5 -4 -9 -8 -9 -4 0 -16 -14 -26
-32 -55 -93 -224 -260 -396 -391 -25 -19 -93 -58 -112 -64 -10 -3 -18 -9 -18
-14 0 -5 -5 -9 -11 -9 -6 0 -27 -7 -47 -16 -21 -9 -46 -20 -57 -25 -69 -30
-201 -50 -370 -56 -179 -5 -213 2 -380 83 -194 95 -390 280 -512 483 -27 46
-103 195 -103 203 0 4 -16 40 -35 81 -19 42 -37 88 -41 104 -4 15 -10 33 -13
38 -17 25 -40 112 -61 230 -23 123 -30 262 -29 555 1 173 -2 345 -6 383 -8 70
1 97 32 97 8 0 31 7 51 16 21 9 53 23 72 31 58 25 299 149 395 203 96 54 280
172 350 225 63 48 72 55 259 219 63 55 179 183 236 261 14 19 29 33 34 32 4
-2 14 -21 21 -42z m-6078 -57 c-3 -8 -6 -5 -6 6 -1 11 2 17 5 13 3 -3 4 -12 1
-19z m970 -10 c-3 -8 -6 -5 -6 6 -1 11 2 17 5 13 3 -3 4 -12 1 -19z m1190 -34
c-3 -3 -12 -4 -19 -1 -8 3 -5 6 6 6 11 1 17 -2 13 -5z m310 0 c-3 -3 -12 -4
-19 -1 -8 3 -5 6 6 6 11 1 17 -2 13 -5z m-1500 -46 c-3 -8 -6 -5 -6 6 -1 11 2
17 5 13 3 -3 4 -12 1 -19z m6850 -190 c-3 -8 -6 -5 -6 6 -1 11 2 17 5 13 3 -3
4 -12 1 -19z m-6880 -125 c-3 -10 -5 -4 -5 12 0 17 2 24 5 18 2 -7 2 -21 0
-30z m2170 -25 c-3 -8 -6 -5 -6 6 -1 11 2 17 5 13 3 -3 4 -12 1 -19z m4760 0
c-3 -8 -6 -5 -6 6 -1 11 2 17 5 13 3 -3 4 -12 1 -19z m-7890 -80 c-3 -8 -6 -5
-6 6 -1 11 2 17 5 13 3 -3 4 -12 1 -19z m4610 -460 c-3 -7 -5 -2 -5 12 0 14 2
19 5 13 2 -7 2 -19 0 -25z m4290 -30 c-3 -8 -6 -5 -6 6 -1 11 2 17 5 13 3 -3
4 -12 1 -19z m-9860 -40 c-3 -8 -6 -5 -6 6 -1 11 2 17 5 13 3 -3 4 -12 1 -19z
m960 -10 c-3 -8 -6 -5 -6 6 -1 11 2 17 5 13 3 -3 4 -12 1 -19z m120 -140 c-3
-8 -6 -5 -6 6 -1 11 2 17 5 13 3 -3 4 -12 1 -19z m-1330 -60 c-3 -8 -6 -5 -6
6 -1 11 2 17 5 13 3 -3 4 -12 1 -19z m1210 -20 c-3 -8 -6 -5 -6 6 -1 11 2 17
5 13 3 -3 4 -12 1 -19z m3280 -80 c-3 -8 -6 -5 -6 6 -1 11 2 17 5 13 3 -3 4
-12 1 -19z m-4340 -50 c-3 -7 -5 -2 -5 12 0 14 2 19 5 13 2 -7 2 -19 0 -25z
m9150 -10 c-3 -8 -6 -5 -6 6 -1 11 2 17 5 13 3 -3 4 -12 1 -19z m760 -110 c-3
-8 -6 -5 -6 6 -1 11 2 17 5 13 3 -3 4 -12 1 -19z m200 -80 c-3 -8 -6 -5 -6 6
-1 11 2 17 5 13 3 -3 4 -12 1 -19z m-5920 -75 c-3 -10 -5 -4 -5 12 0 17 2 24
5 18 2 -7 2 -21 0 -30z m-4290 -225 c-3 -7 -5 -2 -5 12 0 14 2 19 5 13 2 -7 2
-19 0 -25z m5820 -85 c-3 -10 -5 -4 -5 12 0 17 2 24 5 18 2 -7 2 -21 0 -30z
m4310 -495 c-3 -8 -6 -5 -6 6 -1 11 2 17 5 13 3 -3 4 -12 1 -19z m-8480 -180
c-3 -8 -6 -5 -6 6 -1 11 2 17 5 13 3 -3 4 -12 1 -19z m6504 -40 c4 -126 42
-311 86 -418 56 -136 91 -184 207 -285 32 -27 168 -95 192 -95 8 0 14 -6 14
-12 0 -14 -40 -88 -59 -110 -7 -7 -31 -38 -54 -68 -36 -48 -131 -164 -147
-180 -5 -5 -141 -158 -205 -230 -51 -58 -472 -479 -505 -505 -40 -32 -135
-110 -140 -115 -14 -15 -114 -90 -119 -90 -8 0 -81 86 -81 95 0 4 -11 21 -25
39 -37 46 -36 44 -92 133 -106 165 -231 409 -288 561 -20 53 -40 106 -45 117
-36 87 -51 187 -30 200 6 3 10 14 10 24 0 18 24 107 40 146 9 22 29 96 37 136
5 26 5 26 131 32 314 17 490 79 699 249 36 30 202 196 228 228 56 71 111 135
118 138 4 2 7 10 7 18 0 24 20 16 21 -8z m56 -210 c-3 -8 -6 -5 -6 6 -1 11 2
17 5 13 3 -3 4 -12 1 -19z m-2730 -144 c-3 -3 -12 -4 -19 -1 -8 3 -5 6 6 6 11
1 17 -2 13 -5z m-5680 -46 c-3 -7 -5 -2 -5 12 0 14 2 19 5 13 2 -7 2 -19 0
-25z m5588 -96 c73 -12 153 -31 180 -41 11 -5 45 -16 75 -26 30 -10 103 -43
163 -73 99 -52 116 -66 235 -187 157 -161 238 -256 364 -429 52 -71 278 -528
278 -561 0 -8 3 -15 8 -15 4 0 16 -28 26 -62 11 -35 22 -67 25 -73 16 -28 32
-86 38 -138 3 -32 10 -60 14 -63 13 -7 11 -111 -2 -153 -44 -143 -157 -266
-390 -424 -96 -65 -313 -177 -342 -177 -9 0 -18 -4 -21 -9 -8 -13 -109 -23
-150 -16 -103 20 -160 168 -172 455 -7 169 9 413 45 700 33 264 35 298 21 357
-7 32 -20 66 -29 76 -24 29 -69 18 -103 -24 -30 -37 -39 -75 -59 -244 -5 -44
-13 -107 -18 -140 -5 -33 -14 -109 -21 -170 -6 -60 -15 -132 -20 -160 -26
-140 -21 -549 9 -705 18 -95 65 -198 121 -263 84 -98 254 -126 405 -66 11 4
31 11 45 15 14 4 48 17 75 30 45 20 76 37 213 115 39 23 48 19 57 -21 4 -17
10 -30 13 -30 8 0 42 -74 42 -89 0 -5 3 -11 8 -13 4 -1 16 -21 28 -43 58 -113
89 -170 95 -175 3 -3 14 -21 24 -40 24 -46 88 -144 98 -148 4 -2 7 -8 7 -13 0
-10 109 -163 175 -244 80 -100 250 -289 384 -427 52 -54 93 -100 90 -102 -6
-5 -275 -140 -319 -159 -19 -8 -66 -29 -103 -46 -38 -17 -73 -31 -78 -31 -5 0
-17 -4 -27 -9 -26 -14 -79 -36 -162 -66 -41 -15 -83 -31 -92 -36 -10 -5 -27
-9 -37 -9 -11 0 -22 -4 -25 -9 -3 -5 -26 -12 -51 -15 -24 -4 -47 -11 -50 -17
-4 -5 -15 -9 -26 -9 -10 0 -27 -4 -37 -10 -15 -8 -56 -19 -142 -36 -14 -3 -34
-9 -45 -14 -20 -8 -110 -28 -170 -37 -16 -2 -39 -8 -50 -13 -22 -9 -199 -35
-415 -60 -249 -30 -646 -39 -860 -19 -252 22 -381 38 -498 60 -71 13 -73 14
-67 39 3 14 13 57 21 95 8 39 19 88 24 110 5 22 16 76 25 120 9 44 21 100 26
125 5 25 16 95 23 156 7 62 17 117 21 123 4 7 7 121 7 254 l-1 242 91 30 c103
34 148 69 148 115 0 41 -18 76 -47 89 -28 13 -95 15 -108 3 -16 -13 -115 -43
-238 -71 -136 -32 -313 3 -393 77 l-29 27 140 6 c135 6 161 10 270 42 201 57
429 212 521 354 18 29 36 65 40 80 3 16 10 40 16 55 12 33 -4 92 -35 126 -23
25 -92 31 -119 10 -9 -7 -31 -42 -49 -78 -34 -69 -101 -161 -141 -196 -95 -81
-170 -127 -303 -185 -66 -29 -332 -52 -358 -31 -7 5 -27 13 -44 17 -18 3 -33
11 -33 16 0 5 -7 9 -14 9 -8 0 -43 28 -78 63 -79 79 -136 190 -141 275 -2 20
7 26 53 43 168 58 260 156 260 274 0 134 -127 229 -340 254 -50 5 -55 8 -55
31 0 24 4 27 135 117 31 22 137 128 168 168 20 27 84 150 103 200 15 38 39
147 39 175 0 16 5 32 10 35 6 3 10 17 10 31 0 32 28 139 50 189 10 22 21 51
25 65 4 14 15 36 25 50 9 14 20 32 23 40 8 17 17 31 69 108 51 74 171 198 268
276 33 26 194 108 255 130 28 10 59 21 70 26 11 5 54 16 95 24 41 8 89 18 105
21 98 22 477 20 610 -3z m-5388 -94 c-2 -13 -4 -3 -4 22 0 25 2 35 4 23 2 -13
2 -33 0 -45z m10260 30 c-3 -7 -5 -2 -5 12 0 14 2 19 5 13 2 -7 2 -19 0 -25z
m-6490 -114 c-3 -3 -12 -4 -19 -1 -8 3 -5 6 6 6 11 1 17 -2 13 -5z m6290 -31
c-3 -10 -5 -4 -5 12 0 17 2 24 5 18 2 -7 2 -21 0 -30z m-10210 -65 c-3 -7 -5
-2 -5 12 0 14 2 19 5 13 2 -7 2 -19 0 -25z m1519 -20 c59 -81 200 -232 294
-315 180 -158 424 -300 650 -376 202 -69 472 -84 643 -37 118 33 195 77 272
154 102 103 154 216 210 461 9 39 20 84 26 101 5 17 9 38 9 47 0 22 15 21 65
-3 22 -11 44 -19 49 -20 11 0 149 -70 156 -79 3 -3 17 -12 33 -20 30 -16 34
-32 12 -51 -8 -7 -15 -17 -15 -22 0 -5 -16 -34 -35 -64 -19 -30 -35 -58 -35
-62 0 -4 -6 -18 -13 -32 -7 -14 -21 -52 -31 -85 -10 -33 -22 -69 -27 -80 -4
-11 -10 -36 -13 -55 -29 -201 -38 -231 -95 -350 -66 -137 -135 -201 -357 -335
-136 -82 -219 -158 -256 -235 -43 -90 -49 -148 -30 -290 7 -47 17 -119 22
-160 6 -41 14 -86 19 -100 5 -14 17 -52 26 -85 34 -116 89 -216 157 -282 84
-82 195 -141 290 -153 56 -7 73 -13 86 -32 31 -44 117 -124 167 -155 101 -63
164 -78 321 -78 l142 0 6 -44 c15 -107 2 -427 -23 -586 -5 -33 -14 -94 -21
-135 -6 -41 -15 -83 -21 -92 -5 -10 -9 -27 -9 -38 0 -12 -7 -45 -16 -73 -8
-29 -19 -68 -24 -87 -22 -81 -43 -141 -52 -146 -6 -4 -27 -2 -47 4 -38 12
-189 50 -231 59 -14 3 -29 9 -35 13 -5 5 -28 11 -50 15 -22 4 -44 11 -50 15
-5 4 -37 15 -70 24 -59 17 -94 30 -127 47 -10 5 -23 9 -29 9 -6 0 -27 7 -47
16 -21 9 -46 19 -57 24 -11 4 -37 15 -58 24 -21 9 -44 16 -52 16 -8 0 -15 4
-15 9 0 5 -12 12 -27 16 -26 6 -404 190 -447 218 -78 49 -126 77 -131 77 -3 0
-33 18 -66 40 -33 22 -62 40 -65 40 -14 0 -380 265 -459 332 -11 10 -50 41
-86 70 -182 145 -490 450 -615 607 -10 14 -37 45 -59 70 -41 46 -112 137 -150
191 -11 15 -57 79 -101 142 -45 63 -90 130 -100 149 -11 19 -28 48 -40 64 -11
17 -34 55 -49 85 -16 30 -34 62 -41 70 -41 52 -247 466 -294 590 -7 19 -17 39
-22 45 -4 5 -8 15 -8 23 0 8 -7 30 -16 50 -26 59 -31 74 -48 129 -9 28 -16 61
-16 71 0 19 34 55 94 97 15 11 39 28 52 38 25 19 139 97 259 177 39 26 86 55
105 66 19 10 37 22 40 25 5 6 105 65 195 115 28 15 66 36 85 47 53 31 244 127
252 127 3 0 23 -24 44 -52z m-1319 -80 c-3 -8 -6 -5 -6 6 -1 11 2 17 5 13 3
-3 4 -12 1 -19z m10160 0 c-3 -8 -6 -5 -6 6 -1 11 2 17 5 13 3 -3 4 -12 1 -19z
m-1312 -38 c3 -5 17 -10 30 -10 13 0 27 -4 30 -10 3 -5 13 -10 22 -10 8 0 30
-7 49 -15 19 -8 49 -21 67 -29 17 -7 47 -20 65 -27 17 -8 32 -17 32 -21 0 -5
5 -8 11 -8 12 0 81 -31 89 -39 3 -4 14 -11 25 -17 97 -53 141 -78 145 -83 8
-10 44 -31 63 -37 9 -4 17 -9 17 -13 0 -4 16 -15 35 -25 19 -11 35 -23 35 -28
0 -4 5 -8 11 -8 6 0 47 -27 91 -60 43 -33 88 -65 99 -70 20 -11 25 -49 10 -78
-6 -9 -22 -51 -36 -92 -15 -41 -30 -84 -35 -95 -5 -11 -16 -37 -24 -57 -93
-222 -184 -404 -317 -636 -27 -47 -49 -87 -49 -89 0 -2 -19 -32 -42 -66 -24
-34 -45 -66 -48 -72 -5 -11 -72 -110 -105 -156 -109 -153 -200 -271 -250 -325
-11 -12 -67 -75 -125 -139 -123 -139 -166 -182 -327 -330 -149 -137 -173 -158
-252 -220 -35 -27 -78 -62 -95 -76 -115 -95 -461 -329 -486 -329 -42 0 -357
291 -483 446 -70 86 -109 137 -132 168 -11 16 -29 40 -40 55 -11 14 -29 42
-39 61 -11 19 -22 37 -25 40 -3 3 -11 14 -17 25 -30 56 -50 91 -54 95 -6 6
-80 158 -111 230 -13 30 -45 96 -70 146 l-46 91 22 14 c48 30 103 77 170 145
86 87 90 93 157 227 5 10 13 63 18 119 10 100 0 221 -21 260 -5 10 -9 25 -9
33 0 8 -4 23 -9 33 -5 9 -21 51 -36 92 -27 74 -76 186 -97 225 -17 29 -66 129
-153 310 -81 167 -131 252 -171 296 l-24 25 22 11 c145 69 168 74 168 42 0
-47 61 -263 110 -391 36 -91 106 -239 160 -333 13 -22 33 -59 46 -83 21 -39
128 -201 182 -276 12 -17 32 -45 45 -62 81 -114 150 -189 189 -205 24 -10 35
-9 62 3 104 50 627 528 860 788 28 30 79 87 115 125 67 71 94 102 191 220 30
37 71 86 90 109 19 23 46 58 60 76 43 59 102 120 116 120 7 0 16 -4 19 -10z
m1292 -42 c-3 -8 -6 -5 -6 6 -1 11 2 17 5 13 3 -3 4 -12 1 -19z m-180 -20 c-3
-7 -5 -2 -5 12 0 14 2 19 5 13 2 -7 2 -19 0 -25z m-6780 -110 c-3 -8 -6 -5 -6
6 -1 11 2 17 5 13 3 -3 4 -12 1 -19z m2520 -340 c-3 -8 -6 -5 -6 6 -1 11 2 17
5 13 3 -3 4 -12 1 -19z m-3124 -95 c-7 -2 -19 -2 -25 0 -7 3 -2 5 12 5 14 0
19 -2 13 -5z m60 0 c-7 -2 -19 -2 -25 0 -7 3 -2 5 12 5 14 0 19 -2 13 -5z m84
1 c-3 -3 -12 -4 -19 -1 -8 3 -5 6 6 6 11 1 17 -2 13 -5z m40 0 c-3 -3 -12 -4
-19 -1 -8 3 -5 6 6 6 11 1 17 -2 13 -5z m2940 -141 c-3 -10 -5 -2 -5 17 0 19
2 27 5 18 2 -10 2 -26 0 -35z m1030 -315 c-3 -8 -6 -5 -6 6 -1 11 2 17 5 13 3
-3 4 -12 1 -19z m150 -80 c-3 -8 -6 -5 -6 6 -1 11 2 17 5 13 3 -3 4 -12 1 -19z
m30 -230 c-3 -8 -6 -5 -6 6 -1 11 2 17 5 13 3 -3 4 -12 1 -19z m-130 -10 c-3
-8 -6 -5 -6 6 -1 11 2 17 5 13 3 -3 4 -12 1 -19z m-1280 -60 c-3 -8 -6 -5 -6
6 -1 11 2 17 5 13 3 -3 4 -12 1 -19z m1380 -90 c-3 -8 -6 -5 -6 6 -1 11 2 17
5 13 3 -3 4 -12 1 -19z m-1360 -320 c-3 -7 -5 -2 -5 12 0 14 2 19 5 13 2 -7 2
-19 0 -25z m-2342 -64 c3 -20 10 -44 15 -53 44 -86 90 -184 90 -192 0 -18 -53
12 -101 58 -52 49 -109 151 -109 196 0 23 4 26 43 29 54 4 54 5 62 -38z m2582
-290 c-3 -3 -12 -4 -19 -1 -8 3 -5 6 6 6 11 1 17 -2 13 -5z m-1864 -51 c-7 -2
-19 -2 -25 0 -7 3 -2 5 12 5 14 0 19 -2 13 -5z m344 -555 c-3 -8 -6 -5 -6 6
-1 11 2 17 5 13 3 -3 4 -12 1 -19z m-50 -620 c-3 -8 -6 -5 -6 6 -1 11 2 17 5
13 3 -3 4 -12 1 -19z m1760 -524 c-3 -3 -12 -4 -19 -1 -8 3 -5 6 6 6 11 1 17
-2 13 -5z m-329 -51 c-10 -2 -28 -2 -40 0 -13 2 -5 4 17 4 22 1 32 -1 23 -4z
m449 -99 c-3 -3 -12 -4 -19 -1 -8 3 -5 6 6 6 11 1 17 -2 13 -5z m-1344 -101
c-7 -2 -19 -2 -25 0 -7 3 -2 5 12 5 14 0 19 -2 13 -5z m104 1 c-3 -3 -12 -4
-19 -1 -8 3 -5 6 6 6 11 1 17 -2 13 -5z"/>
<path d="M3141 6944 c-39 -32 -48 -50 -67 -122 -16 -62 -9 -110 27 -183 49
-99 188 -107 250 -14 53 79 52 200 0 280 -33 50 -62 65 -128 65 -41 0 -58 -5
-82 -26z m216 -216 c-3 -8 -6 -5 -6 6 -1 11 2 17 5 13 3 -3 4 -12 1 -19z"/>
<path d="M4201 6938 c-29 -20 -42 -38 -73 -100 -11 -25 -10 -155 2 -163 6 -3
10 -14 10 -24 0 -9 14 -32 31 -49 26 -26 39 -32 74 -32 35 0 49 6 75 32 18 18
41 52 51 76 66 153 -56 339 -170 260z"/>
<path d="M3875 6514 c-14 -15 -25 -39 -25 -55 0 -26 39 -125 92 -236 29 -58
41 -113 30 -129 -15 -23 -119 -64 -163 -64 -36 0 -89 -50 -89 -84 0 -106 259
-94 378 18 19 17 43 51 54 76 18 40 19 51 10 104 -12 65 -37 117 -118 248 -30
48 -54 91 -54 94 0 13 -55 54 -73 54 -10 0 -29 -12 -42 -26z m22 -116 c-3 -8
-6 -5 -6 6 -1 11 2 17 5 13 3 -3 4 -12 1 -19z m-24 -495 c-7 -2 -21 -2 -30 0
-10 3 -4 5 12 5 17 0 24 -2 18 -5z"/>
<path d="M3159 5752 c-45 -46 -49 -62 -27 -110 27 -56 109 -121 225 -178 94
-46 138 -58 258 -75 73 -10 236 -3 264 11 9 5 39 16 66 26 99 34 145 77 145
134 0 70 -42 92 -123 64 -29 -10 -56 -21 -62 -25 -21 -15 -139 -39 -188 -39
-68 0 -178 26 -247 58 -30 13 -98 56 -151 93 -53 38 -105 69 -115 68 -11 0
-31 -12 -45 -27z m508 -218 c-3 -3 -12 -4 -19 -1 -8 3 -5 6 6 6 11 1 17 -2 13
-5z"/>
<path d="M6482 6733 c-53 -52 -79 -145 -61 -219 20 -80 45 -122 89 -144 47
-24 66 -25 113 -5 76 31 108 90 108 195 0 132 -59 210 -159 210 -45 0 -55 -4
-90 -37z m225 -145 c-3 -8 -6 -5 -6 6 -1 11 2 17 5 13 3 -3 4 -12 1 -19z
m-250 -90 c-3 -7 -5 -2 -5 12 0 14 2 19 5 13 2 -7 2 -19 0 -25z"/>
<path d="M7500 6753 c-51 -35 -73 -73 -85 -141 -28 -167 103 -312 220 -243 17
10 43 36 59 59 27 38 29 48 30 129 0 66 -5 97 -18 123 -33 62 -75 90 -136 90
-27 0 -56 -7 -70 -17z m-53 -255 c-3 -8 -6 -5 -6 6 -1 11 2 17 5 13 3 -3 4
-12 1 -19z m250 0 c-3 -8 -6 -5 -6 6 -1 11 2 17 5 13 3 -3 4 -12 1 -19z"/>
<path d="M6875 6306 c-11 -8 -38 -49 -59 -92 -22 -44 -42 -81 -45 -84 -4 -3
-15 -23 -25 -45 -10 -22 -23 -48 -27 -57 -5 -10 -9 -49 -9 -88 0 -59 4 -77 26
-109 52 -79 158 -120 271 -106 58 7 93 33 93 70 0 36 -69 84 -123 86 -27 1
-77 29 -91 52 -8 12 -8 22 2 37 6 11 12 25 12 31 0 10 22 65 40 100 5 9 14 44
20 77 11 65 3 105 -28 128 -22 17 -33 17 -57 0z"/>
<path d="M7540 5662 c-19 -15 -58 -47 -86 -72 -118 -104 -270 -142 -440 -109
-32 7 -64 16 -70 20 -6 5 -32 12 -57 15 -40 6 -48 3 -72 -20 -23 -23 -26 -32
-20 -64 8 -46 16 -55 68 -83 199 -104 445 -83 657 55 56 36 150 126 150 143 0
7 5 13 10 13 15 0 12 47 -5 81 -28 54 -82 62 -135 21z m-467 -349 c-7 -2 -19
-2 -25 0 -7 3 -2 5 12 5 14 0 19 -2 13 -5z"/>
<path d="M4315 3793 c-37 -9 -49 -26 -85 -122 -24 -62 23 -186 82 -216 46 -22
80 -19 115 13 47 42 63 83 63 157 0 131 -66 194 -175 168z m-48 -135 c-3 -8
-6 -5 -6 6 -1 11 2 17 5 13 3 -3 4 -12 1 -19z"/>
<path d="M5140 3683 c-56 -21 -94 -103 -88 -188 8 -95 71 -175 138 -175 30 0
80 31 108 67 24 33 27 44 27 117 -1 69 -4 86 -25 118 -14 20 -37 44 -51 52
-27 16 -79 20 -109 9z"/>
</g>
</svg>
